<svg width="115" height="32" viewBox="0 0 115 32" fill="none" xmlns="http://www.w3.org/2000/svg">
<path d="M0.210931 18.6841C0.210931 17.8245 0.195158 17.1199 0.142578 16.4311H1.45707L1.52542 17.7719H1.578C1.82842 17.2958 2.20779 16.8998 2.67271 16.6292C3.13763 16.3587 3.66933 16.2244 4.20697 16.2418C4.72711 16.2346 5.23617 16.3923 5.66121 16.6921C6.08625 16.992 6.40544 17.4188 6.57305 17.9112H6.60723C6.83436 17.4895 7.14683 17.1197 7.52474 16.8255C8.05095 16.4215 8.70219 16.215 9.36502 16.2418C10.4666 16.2418 12.0992 16.9648 12.0992 19.854V24.7571H10.6217V20.0433C10.6217 18.4449 10.0354 17.4801 8.81294 17.4801C8.40925 17.4972 8.02076 17.6389 7.70072 17.8855C7.38067 18.1321 7.14473 18.4717 7.02523 18.8577C6.94619 19.1023 6.9054 19.3577 6.9043 19.6148V24.7571H5.42419V19.762C5.42419 18.4475 4.84056 17.4748 3.68644 17.4748C2.74001 17.4748 2.05121 18.232 1.81198 18.9891C1.72703 19.2259 1.68604 19.4763 1.69104 19.7278V24.7571H0.210931V18.6841Z" fill="#555D71"/>
<path d="M12.23 24.8886H10.4896V20.0434C10.4896 18.9287 10.1978 17.6142 8.81232 17.6142C8.43651 17.633 8.0755 17.7666 7.77794 17.997C7.48039 18.2273 7.2606 18.5433 7.14818 18.9024C7.07428 19.1336 7.03616 19.3748 7.03514 19.6175V24.8886H5.29213V19.7673C5.29213 18.4187 4.69272 17.6116 3.68582 17.6116C2.7946 17.6116 2.15313 18.3503 1.93493 19.0339C1.85511 19.2582 1.8168 19.4951 1.82188 19.7332V24.8886H0.0788692V18.6842C0.0788692 17.7509 0.0578374 17.0884 0 16.4417V16.2997H1.59053L1.64837 17.4328C1.92721 17.0149 2.30789 16.675 2.75452 16.445C3.20114 16.215 3.69899 16.1026 4.2011 16.1183C4.70688 16.1128 5.20315 16.2558 5.62841 16.5297C6.05367 16.8035 6.38922 17.1962 6.59347 17.6589C6.81927 17.3001 7.10779 16.9848 7.44526 16.7282C7.99497 16.3087 8.67334 16.0931 9.36441 16.1183C10.7499 16.1183 12.23 17.1016 12.23 19.862V24.8886ZM10.7525 24.6257H11.9671V19.8541C11.9671 17.2882 10.6237 16.3733 9.36441 16.3733C8.7303 16.3484 8.10737 16.5455 7.60299 16.9307C7.23484 17.2149 6.93034 17.5731 6.70914 17.9823L6.67234 18.0506H6.46728L6.43573 17.9639C6.27546 17.5 5.97353 17.0982 5.57256 16.8151C5.1716 16.5321 4.69187 16.3822 4.2011 16.3865C3.6883 16.3696 3.18121 16.4984 2.73869 16.7581C2.29616 17.0177 1.93633 17.3975 1.70095 17.8534L1.66151 17.9165H1.39861L1.34078 16.5626H0.289187C0.328622 17.1673 0.347025 17.8114 0.347025 18.6842V24.6257H1.55898V19.7332C1.55294 19.4646 1.59662 19.1972 1.6878 18.9445C1.9323 18.1821 2.66315 17.3513 3.68056 17.3513C4.83468 17.3513 5.54977 18.2793 5.54977 19.77V24.6257H6.76698V19.6149C6.76955 19.3471 6.81209 19.0813 6.89317 18.8262C7.15607 18.0953 7.8396 17.3592 8.80706 17.3592C10.0585 17.3592 10.7472 18.3161 10.7472 20.0539L10.7525 24.6257Z" fill="#555D71"/>
<path d="M14.8854 16.4312L16.7099 21.3526C16.8992 21.902 17.1042 22.5567 17.2357 23.0535H17.2699C17.425 22.5567 17.5958 21.9204 17.7956 21.3184L19.4545 16.4312H21.0556L18.792 22.3674C17.7089 25.2224 16.9675 26.6842 15.9343 27.5806C15.4111 28.0628 14.7715 28.4007 14.0783 28.5612L13.6997 27.2862C14.1809 27.1259 14.6271 26.8751 15.0142 26.5474C15.5682 26.0936 16.0085 25.5165 16.2998 24.8623C16.3609 24.7493 16.4018 24.6265 16.4207 24.4995C16.4072 24.3632 16.3717 24.23 16.3155 24.1051L13.2344 16.4312H14.8854Z" fill="#555D71"/>
<path d="M13.9855 28.7111L13.5359 27.202L13.6595 27.1626C14.1263 27.0061 14.5597 26.7636 14.9372 26.4475C15.4718 26.0043 15.8957 25.4426 16.1754 24.807C16.2319 24.7113 16.2736 24.6076 16.299 24.4995C16.2822 24.3791 16.2495 24.2615 16.2017 24.1498L13.0391 16.2997H14.9845L16.8248 21.2947C16.9773 21.7364 17.1324 22.2201 17.2533 22.6381L17.3085 22.4515C17.4189 22.0834 17.5425 21.6628 17.6792 21.2632L19.367 16.2997H21.252L18.928 22.4147C17.7607 25.4879 17.0298 26.8156 16.0361 27.6726C15.4971 28.1737 14.8349 28.5229 14.1169 28.6848L13.9855 28.7111ZM13.8593 27.3703L14.1669 28.4061C14.792 28.2344 15.3676 27.9173 15.8468 27.4807C16.8064 26.65 17.5188 25.3486 18.6677 22.32L20.8708 16.5626H19.5563L17.9342 21.3605C17.8001 21.7522 17.6713 22.1702 17.5688 22.5382C17.511 22.7354 17.4557 22.9221 17.4032 23.093L17.3742 23.185H17.1429L17.1166 23.0903C16.9852 22.6171 16.7827 21.9678 16.5908 21.3946L14.7926 16.5626H13.4282L16.4357 24.0552C16.5019 24.1953 16.5445 24.3454 16.5619 24.4995C16.5451 24.6451 16.5005 24.7861 16.4304 24.9148C16.1342 25.5882 15.684 26.1825 15.116 26.65C14.7423 26.9616 14.317 27.2054 13.8593 27.3703Z" fill="#555D71"/>
<path d="M47.6766 22.6092C48.5188 23.0977 49.4692 23.3687 50.4423 23.3979C51.933 23.3979 52.6428 22.6644 52.6428 21.6943C52.6428 20.7242 52.0513 20.1564 50.5396 19.5912C48.4574 18.8314 47.4874 17.7193 47.4874 16.3496C47.4874 14.5094 48.999 12.9898 51.4308 12.9898C52.4096 12.9646 53.3764 13.2093 54.2254 13.697L53.7285 15.1876C53.0181 14.7659 52.2096 14.5375 51.3835 14.5251C50.1531 14.5251 49.4906 15.2349 49.4906 16.1025C49.4906 17.07 50.1531 17.4985 51.6438 18.0637C53.6076 18.7972 54.6513 19.791 54.6513 21.5235C54.6513 23.5557 53.0739 24.9779 50.3897 24.9779C49.2659 24.99 48.1578 24.713 47.1719 24.1735L47.6766 22.6092Z" fill="#555D71"/>
<path d="M66.2869 7.90015V21.7443C66.2869 22.7617 66.308 23.9211 66.3816 24.7019H64.5097L64.4098 22.7144H64.3625C63.7237 23.9921 62.3514 24.9648 60.4822 24.9648C57.7112 24.9648 55.5607 22.6171 55.5607 19.1416C55.5371 15.306 57.9268 12.9898 60.6951 12.9898C62.4697 12.9898 63.6527 13.8153 64.1496 14.7171H64.1969V7.90015H66.2869ZM64.2022 17.9113C64.2073 17.6088 64.1755 17.3069 64.1075 17.0122C63.9546 16.3305 63.5732 15.7216 63.0267 15.2864C62.4801 14.8513 61.8012 14.6161 61.1026 14.6198C58.9495 14.6198 57.6849 16.5127 57.6849 19.0233C57.6849 21.3658 58.8443 23.2823 61.0684 23.2823C61.7831 23.2755 62.4742 23.0263 63.0287 22.5754C63.5832 22.1245 63.9682 21.4988 64.1207 20.8005C64.1908 20.5053 64.2226 20.2022 64.2153 19.8988L64.2022 17.9113Z" fill="#555D71"/>
<path d="M70.0787 13.2474L71.6193 19.047C71.9242 20.3246 72.2318 21.5313 72.4474 22.7275H72.5157C72.7786 21.5681 73.1546 20.3378 73.5358 19.0838L75.4024 13.2606H77.1559L78.9305 18.9891C79.3563 20.3378 79.6876 21.5681 79.9479 22.7275H80.0188C80.2418 21.474 80.534 20.2339 80.8943 19.0128L82.5269 13.2606H84.5854L80.8943 24.7124H79.0014L77.2479 19.2468C76.8457 17.9323 76.5144 16.8097 76.2331 15.4584H76.1858C75.9107 16.7478 75.5595 18.0198 75.1342 19.2678L73.2939 24.7124H71.4037L67.9492 13.2474H70.0787Z" fill="#898E9A"/>
<path d="M90.1736 24.9753C87.095 24.9753 84.6816 22.7013 84.6816 19.0812C84.6816 15.2455 87.2133 13.0004 90.3602 13.0004C93.6517 13.0004 95.8811 15.3901 95.8811 18.8682C95.8811 23.1272 92.9209 24.9753 90.1999 24.9753H90.1736ZM90.2524 23.398C92.2399 23.398 93.7306 21.5288 93.7306 18.9287C93.7306 16.9885 92.7605 14.5515 90.3129 14.5515C87.8653 14.5515 86.8006 16.8255 86.8006 18.9997C86.8006 21.5104 88.2202 23.4006 90.2183 23.4006L90.2524 23.398Z" fill="#898E9A"/>
<path d="M97.6044 16.8255C97.6044 15.4768 97.5807 14.3148 97.5098 13.2501H99.329L99.4237 15.5005H99.4973C100.023 13.9599 101.295 12.9924 102.691 12.9924C102.883 12.9904 103.074 13.0134 103.259 13.0608V15.001C103.023 14.9799 102.81 14.9563 102.526 14.9563C101.059 14.9563 100.015 16.0657 99.7313 17.6037C99.6825 17.9335 99.6587 18.2666 99.6603 18.6V24.7124H97.5808L97.6044 16.8255Z" fill="#898E9A"/>
<path d="M106.716 13.2474L108.346 15.6871C108.772 16.3496 109.134 16.9149 109.505 17.5563H109.576C109.955 16.8912 110.333 16.3023 110.735 15.6871L112.313 13.2474H114.584L110.68 18.7841L114.689 24.7124H112.323L110.641 22.1334C110.194 21.4735 109.815 20.8189 109.41 20.1459H109.366C108.99 20.832 108.577 21.4604 108.159 22.1334L106.498 24.7124H104.205L108.275 18.8682L104.392 13.2474H106.716Z" fill="#898E9A"/>
<path d="M33.4696 8.95447L30.8906 32.0001H34.976L37.7233 8.95447H33.4696Z" fill="#E4003A"/>
<path d="M26.1378 24.8569H30.0182L28.4724 16.0867H24.5L26.1378 24.8569Z" fill="#7783A0"/>
<path d="M43.2817 0.00012207L37.9922 24.8492H42.1512L47.7063 0.00012207H43.2817Z" fill="#F8AD07"/>
</svg>
