<?xml version="1.0" encoding="utf-8"?>
<!-- Generator: Adobe Illustrator 23.0.6, SVG Export Plug-In . SVG Version: 6.00 Build 0)  -->
<svg version="1.1" id="Layer_1" xmlns="http://www.w3.org/2000/svg" xmlns:xlink="http://www.w3.org/1999/xlink" x="0px" y="0px"
	 viewBox="0 0 161.4 70.6" style="enable-background:new 0 0 161.4 70.6;" xml:space="preserve">
<style type="text/css">
	.st0{fill:#FFFFFF;}
</style>
<path class="st0" d="M47.5,43c0.9,0.6,2.5,1.2,4.1,1.2c2.2,0,3.2-1.1,3.2-2.5c0-1.5-0.9-2.3-3.1-3.1c-3.1-1.1-4.5-2.8-4.5-4.8
	c0-2.7,2.2-4.9,5.8-4.9c1.7,0,3.2,0.5,4.1,1l-0.7,2.2c-0.7-0.4-1.9-1-3.4-1c-1.8,0-2.8,1-2.8,2.3c0,1.4,1,2.1,3.2,2.9
	c2.9,1.1,4.4,2.5,4.4,5.1c0,3-2.3,5.1-6.3,5.1c-1.8,0-3.5-0.5-4.7-1.2L47.5,43z"/>
<path class="st0" d="M74.8,21.4v20.3c0,1.5,0,3.2,0.1,4.3h-2.7l-0.1-2.9H72c-0.9,1.9-3,3.3-5.7,3.3c-4.1,0-7.2-3.4-7.2-8.5
	c0-5.6,3.5-9,7.5-9c2.6,0,4.3,1.2,5.1,2.5h0.1v-10L74.8,21.4L74.8,21.4z M71.8,36.1c0-0.4,0-0.9-0.1-1.3c-0.5-1.9-2.1-3.5-4.4-3.5
	c-3.2,0-5,2.8-5,6.5c0,3.4,1.7,6.3,5,6.3c2,0,3.9-1.4,4.5-3.6c0.1-0.4,0.1-0.8,0.1-1.3v-3.1H71.8z"/>
<path class="st0" d="M80.4,29.3l2.3,8.5c0.4,1.9,0.9,3.6,1.2,5.4H84c0.4-1.7,0.9-3.5,1.5-5.4l2.7-8.6h2.6l2.6,8.4
	c0.6,2,1.1,3.8,1.5,5.5H95c0.3-1.7,0.7-3.5,1.3-5.5l2.4-8.4h3L96.3,46h-2.8l-2.6-8c-0.6-1.9-1.1-3.6-1.5-5.6h-0.1
	c-0.4,2-0.9,3.8-1.5,5.6l-2.7,8h-2.8l-5.1-16.8h3.2V29.3z"/>
<path class="st0" d="M109.9,46.5c-4.5,0-8.1-3.3-8.1-8.7c0-5.6,3.7-8.9,8.3-8.9c4.8,0,8.1,3.5,8.1,8.6
	C118.3,43.8,114,46.5,109.9,46.5L109.9,46.5z M110,44.2c2.9,0,5.1-2.7,5.1-6.6c0-2.9-1.4-6.4-5-6.4s-5.1,3.3-5.1,6.5
	C105,41.4,107,44.2,110,44.2L110,44.2z"/>
<path class="st0" d="M120.8,34.5c0-2,0-3.7-0.1-5.2h2.7l0.1,3.3h0.1c0.8-2.3,2.6-3.7,4.7-3.7c0.3,0,0.6,0,0.8,0.1v2.8
	c-0.4,0-0.7-0.1-1.1-0.1c-2.2,0-3.7,1.6-4.1,3.9c-0.1,0.5-0.1,0.9-0.1,1.5v9h-3V34.5z"/>
<path class="st0" d="M134.2,29.3l2.4,3.6c0.6,1,1.1,1.8,1.7,2.7h0.1c0.6-1,1.1-1.8,1.7-2.7l2.3-3.6h3.3l-5.7,8.1l5.9,8.7h-3.5
	l-2.5-3.8c-0.7-1-1.2-1.9-1.8-2.9H138c-0.6,1-1.1,1.9-1.8,2.9l-2.4,3.8h-3.4l6-8.6l-5.6-8.2H134.2z"/>
<polygon class="st0" points="26.6,23 22.9,56.8 28.9,56.8 32.9,23 "/>
<polygon class="st0" points="15.9,46.3 21.6,46.3 19.3,33.4 13.5,33.4 "/>
<polygon class="st0" points="41.1,9.8 33.3,46.3 39.4,46.3 47.6,9.8 "/>
</svg>
